<svg width="156" height="20" viewBox="0 0 156 20" fill="none" xmlns="http://www.w3.org/2000/svg">
<path d="M31.0989 15H33.0669V6.952L36.6349 11.88H36.9229L40.4589 6.904V15H42.4109V3.8H40.5549L36.9069 9.032L33.0829 3.8H31.0989V15ZM44.0808 15H46.0648L47.2328 12.136H52.0168L53.1848 15H55.2808L50.5448 3.768H48.8168L44.0808 15ZM49.6328 6.312L51.2648 10.296H47.9848L49.6328 6.312ZM61.4543 12.024C61.4543 12.872 60.7503 13.336 59.8223 13.336C58.9583 13.336 57.9023 12.92 57.2463 12.072L56.1263 13.416C56.6703 14.552 58.3503 15.176 59.7903 15.176C61.8863 15.176 63.5343 13.896 63.5343 12.008C63.5343 8.28 58.4623 9.016 58.4623 6.696C58.4623 5.96 59.0543 5.464 60.0303 5.464C60.9263 5.464 61.4703 5.768 62.0143 6.296L63.0703 4.824C62.3983 4.088 61.2463 3.624 59.8703 3.624C57.6943 3.624 56.3823 5.032 56.3823 6.712C56.3823 10.36 61.4543 9.816 61.4543 12.024ZM64.41 5.64H68.042V15H70.01V5.64H73.642V3.8H64.41V5.64ZM75.3489 15H81.9889V13.16H77.3169V10.264H81.3489V8.424H77.3169V5.64H81.8289V3.8H75.3489V15ZM86.52 15V10.808H87.896L90.984 15H93.368L89.864 10.424C90.792 10.104 92.024 9.144 92.024 7.224C92.024 5.288 91.016 3.768 87.96 3.768C87.64 3.768 85.176 3.8 84.552 3.8V15H86.52ZM87.864 5.608C89.464 5.608 89.944 6.36 89.944 7.24C89.944 8.392 88.936 8.968 87.8 8.968H86.52V5.64C87.048 5.624 87.496 5.608 87.864 5.608ZM99.5793 12.024C99.5793 12.872 98.8753 13.336 97.9473 13.336C97.0833 13.336 96.0273 12.92 95.3713 12.072L94.2513 13.416C94.7953 14.552 96.4753 15.176 97.9153 15.176C100.011 15.176 101.659 13.896 101.659 12.008C101.659 8.28 96.5873 9.016 96.5873 6.696C96.5873 5.96 97.1793 5.464 98.1553 5.464C99.0513 5.464 99.5953 5.768 100.139 6.296L101.195 4.824C100.523 4.088 99.3713 3.624 97.9953 3.624C95.8193 3.624 94.5073 5.032 94.5073 6.712C94.5073 10.36 99.5793 9.816 99.5793 12.024ZM112.359 3.8H110.231L107.479 8.488L104.695 3.8H102.455L106.407 10.328V15H108.375V10.328L112.359 3.8ZM118.486 12.024C118.486 12.872 117.782 13.336 116.854 13.336C115.99 13.336 114.934 12.92 114.278 12.072L113.158 13.416C113.702 14.552 115.382 15.176 116.822 15.176C118.918 15.176 120.566 13.896 120.566 12.008C120.566 8.28 115.494 9.016 115.494 6.696C115.494 5.96 116.086 5.464 117.062 5.464C117.958 5.464 118.502 5.768 119.046 6.296L120.102 4.824C119.43 4.088 118.278 3.624 116.902 3.624C114.726 3.624 113.414 5.032 113.414 6.712C113.414 10.36 118.486 9.816 118.486 12.024ZM121.441 5.64H125.073V15H127.041V5.64H130.673V3.8H121.441V5.64ZM132.38 15H139.02V13.16H134.348V10.264H138.38V8.424H134.348V5.64H138.86V3.8H132.38V15ZM141.583 15H143.551V6.952L147.119 11.88H147.407L150.943 6.904V15H152.895V3.8H151.039L147.391 9.032L143.567 3.8H141.583V15Z" fill="white"/>
<path d="M11.9994 19.5455C11.3874 19.5455 10.8004 19.306 10.3676 18.8798C9.93484 18.4536 9.69171 17.8755 9.69171 17.2727V15.0364L6.73786 12.1273H2.76863C2.15659 12.1273 1.56962 11.8878 1.13684 11.4616C0.704069 11.0354 0.460938 10.4573 0.460938 9.85456C0.460938 9.25179 0.704069 8.67372 1.13684 8.2475C1.56962 7.82128 2.15659 7.58183 2.76863 7.58183H5.38094V2.72729C5.38094 2.42883 5.44063 2.13329 5.5566 1.85755C5.67257 1.58181 5.84256 1.33127 6.05684 1.12023C6.27113 0.909184 6.52553 0.741776 6.80551 0.62756C7.0855 0.513345 7.38558 0.454559 7.68863 0.454559C7.99168 0.454559 8.29176 0.513345 8.57175 0.62756C8.85173 0.741776 9.10613 0.909184 9.32041 1.12023C9.5347 1.33127 9.70469 1.58181 9.82066 1.85755C9.93663 2.13329 9.99632 2.42883 9.99632 2.72729V8.90911L11.9994 10.9091L14.0025 8.90911V2.72729C14.0025 2.12452 14.2456 1.54644 14.6784 1.12023C15.1112 0.694007 15.6981 0.454559 16.3102 0.454559C16.9222 0.454559 17.5092 0.694007 17.942 1.12023C18.3747 1.54644 18.6179 2.12452 18.6179 2.72729V7.57274H21.2302C21.8422 7.57274 22.4292 7.81219 22.862 8.23841C23.2947 8.66463 23.5379 9.2427 23.5379 9.84547C23.5379 10.4482 23.2947 11.0263 22.862 11.4525C22.4292 11.8787 21.8422 12.1182 21.2302 12.1182H17.2609L14.3071 15.0273V17.2727C14.3071 17.8755 14.064 18.4536 13.6312 18.8798C13.1984 19.306 12.6114 19.5455 11.9994 19.5455Z" fill="#FF6100"/>
</svg>
